HIERARCHY
ROOT Hips
{
  OFFSET -3.75099 91.0728 33.7423
  CHANNELS 6 Xposition Yposition Zposition Zrotation Xrotation Yrotation
  JOINT ToSpine
  {
    OFFSET -2.69724 7.43032 -0.144315
    CHANNELS 3 Zrotation Xrotation Yrotation
    JOINT Spine
    {
      OFFSET -0.0310711 10.7595 1.96963
      CHANNELS 3 Zrotation Xrotation Yrotation
      JOINT Spine1
      {
        OFFSET 13.1342 3.43533 0.764692
        CHANNELS 3 Zrotation Xrotation Yrotation
        JOINT Neck
        {
          OFFSET 29.8703 7.82586 -0.130764
          CHANNELS 3 Zrotation Xrotation Yrotation
          JOINT Head
          {
            OFFSET 9.52751 0.295786 -0.907742
            CHANNELS 3 Zrotation Xrotation Yrotation
            End Site
            {
              OFFSET 16.4037 0.713936 2.7358
            }
          }
        }
        JOINT LeftShoulder
        {
          OFFSET 27.5574 4.95586 2.47156
          CHANNELS 3 Zrotation Xrotation Yrotation
          JOINT LeftArm
          {
            OFFSET 1.20734 -0.998971 20.1238
            CHANNELS 3 Zrotation Xrotation Yrotation
            JOINT LeftForeArm
            {
              OFFSET 26.8049 -0.0536703 -0.155908
              CHANNELS 3 Zrotation Xrotation Yrotation
              JOINT LeftHand
              {
                OFFSET 26.6817 0 0.320147
                CHANNELS 3 Zrotation Xrotation Yrotation
                End Site
                {
                  OFFSET 18.6119 0 0.382219
                }
              }
            }
          }
        }
        JOINT RightShoulder
        {
          OFFSET 27.5927 4.71444 -2.65209
          CHANNELS 3 Zrotation Xrotation Yrotation
          JOINT RightArm
          {
            OFFSET 2.83739 -1.17114 -18.7564
            CHANNELS 3 Zrotation Xrotation Yrotation
            JOINT RightForeArm
            {
              OFFSET 28.839 -0.0548439 1.22491
              CHANNELS 3 Zrotation Xrotation Yrotation
              JOINT RightHand
              {
                OFFSET 26.5114 0 -0.101894
                CHANNELS 3 Zrotation Xrotation Yrotation
                End Site
                {
                  OFFSET 18.2168 0 0
                }
              }
            }
          }
        }
      }
    }
  }
  JOINT LeftUpLeg
  {
    OFFSET -4.76168 -1.9167 -10.2353
    CHANNELS 3 Zrotation Xrotation Yrotation
    JOINT LeftLeg
    {
      OFFSET 2.55951 -42.0585 -8.02213
      CHANNELS 3 Zrotation Xrotation Yrotation
      JOINT LeftFoot
      {
        OFFSET 3.16357 -42.5282 -3.95426
        CHANNELS 3 Zrotation Xrotation Yrotation
        JOINT LeftToeBase
        {
          OFFSET 0.346054 -6.02161 12.8035
          CHANNELS 3 Zrotation Xrotation Yrotation
          End Site
          {
            OFFSET 0.134235 -1.35082 5.13018
          }
        }
      }
    }
  }
  JOINT RightUpLeg
  {
    OFFSET -4.94151 -1.41743 10.6446
    CHANNELS 3 Zrotation Xrotation Yrotation
    JOINT RightLeg
    {
      OFFSET -2.56294 -42.0364 -7.94377
      CHANNELS 3 Zrotation Xrotation Yrotation
      JOINT RightFoot
      {
        OFFSET -3.0952 -42.555 -4.02241
        CHANNELS 3 Zrotation Xrotation Yrotation
        JOINT RightToeBase
        {
          OFFSET -0.0828122 -6.13587 12.8035
          CHANNELS 3 Zrotation Xrotation Yrotation
          End Site
          {
            OFFSET -0.131328 -1.35082 5.13018
          }
        }
      }
    }
  }
}
MOTION
Frames:	6
Frame Time:	0.0333333
-33.3897 88.8621 110.447 -16.1215 -71.4749 -100.352 -70.1915 0 88.8779 61.3092 58.5027 3.13193 7.87216 5.79772 9.53264 -126.804 21.8075 160.068 -144.432 63.5133 178.376 -1.90597 -26.1541 -28.1033 -99.2398 38.4711 -76.6935 -47.4012 -1.34323 -87.8767 0.420957 0.000575423 0.35866 -0.576901 4.82091 27.2697 -53.5231 -27.6214 155.173 13.9414 6.74475 114.915 0.58676 0.00033108 0.0646653 -74.7173 20.9235 99.5961 -1.04961 33.9165 -4.66283 -8.93244 -12.9631 -0.987098 9.71845 -19.7592 14.5361 -28.9008 11.3362 105.634 3.29414 34.6503 23.1494 -10.4184 13.0104 1.6646 3.48536 -25.2518 4.58818 
-32.4493 88.1274 110.735 -16.3931 -69.6716 -100.916 -70.1915 0 88.8779 60.7199 57.8396 0.849297 8.45892 3.45521 15.1829 -123.011 21.8114 154.426 -144.285 65.7818 179.628 -0.600511 -20.7584 -25.3847 -111.103 36.3092 -109.776 -50.8683 0.537765 -91.0292 0.420957 0.000575423 0.35866 -0.712691 4.78479 30.5368 -50.1441 -33.0378 131.188 -6.65022 -4.34805 123.236 0.58676 0.00033108 0.0646653 -72.5654 21.5261 104.935 0.134189 32.8168 0.809515 -9.00735 -15.0959 -1.32041 8.26332 -17.6019 10.1045 -28.108 9.14575 103.395 2.94647 32.7522 25.1342 -10.8953 10.2148 1.72968 3.53013 -25.3042 5.13321 
-31.2398 86.9493 110.595 -22.0684 -68.5337 -108.668 -70.1915 0 88.8779 67.0867 58.9909 -2.5268 5.96853 4.03861 15.1542 -124.646 25.3632 155.546 -152.263 69.6061 -173.673 0.628176 -17.6236 -16.0852 -113.711 51.7679 -119.9 -40.0313 10.7492 -100.879 0.420957 0.000575423 0.35866 -1.21088 6.02221 34.6914 -54.0125 -39.6627 104.954 -16.9939 -10.0653 119.715 0.58676 0.00033108 0.0646653 -71.5811 18.3138 105.707 -0.752236 35.55 7.61948 -6.47146 -18.7217 -1.85238 6.76841 -15.1624 9.33434 -24.7649 9.39963 106.356 3.76382 37.3681 23.7323 -12.3038 8.81851 1.99156 3.74636 -26.6078 4.72692 
-30.3242 85.5025 111.182 -36.7183 -66.4052 -125.448 -70.1915 0 88.8779 69.4735 60.3563 0.361963 7.28355 6.29209 13.9634 -132.242 26.4252 166.299 -154.643 67.3096 -172.635 0.973709 -10.7212 -6.93606 -118.166 57.9258 -110.387 -28.0099 14.3491 -114.458 0.420957 0.000575423 0.35866 -1.4011 6.78252 35.3575 -57.9687 -44.5099 92.2989 -18.3751 -5.99225 107.317 0.58676 0.00033108 0.0646653 -75.0632 14.8466 109.85 -0.770152 36.3707 6.66 -7.01115 -20.8897 -2.18711 7.81915 -17.0144 17.8281 -23.2753 14.3554 112.233 4.25373 43.1095 22.3321 -15.384 8.28153 2.60121 4.02664 -30.0587 1.45846 
-29.465 85.6736 111.433 -26.6076 -69.2059 -116.212 -70.1915 0 88.8779 71.7697 60.7489 1.48382 8.5927 6.99706 13.2735 -134.351 26.0448 171.165 -152.022 65.7699 -173.75 1.08946 -9.20936 -10.6407 -107.136 54.992 -114.959 -18.363 9.80033 -116.615 0.420957 0.000575423 0.35866 -2.12883 8.18473 40.1976 -69.1188 -44.3602 75.6566 -27.6068 -3.57921 96.5985 0.58676 0.00033108 0.0646653 -74.537 14.1758 108.524 -1.07327 36.0065 4.22322 -6.45945 -20.4938 -2.10036 8.31735 -17.7549 16.1221 -23.7753 11.1717 113.472 4.26312 45.1118 20.4087 -17.0748 7.67714 2.89927 3.69956 -31.8014 -2.97223 
-29.2012 86.2739 111.507 13.2551 -69.6947 -77.6205 -70.1915 0 88.8779 65.8461 61.0401 7.39221 10.4229 7.61798 14.9474 -138.646 28.2318 172.584 -151.002 67.3769 -177.631 0.78451 -14.0969 -15.7653 -93.3539 52.5657 -122.452 -21.6968 8.70006 -110.243 0.420957 0.000575423 0.35866 -2.4938 8.50833 43.4314 -81.2819 -43.5912 63.1469 -31.8467 -1.72379 92.5854 0.58676 0.00033108 0.0646653 -67.6492 14.8181 102.394 -1.79622 38.2849 -0.498753 -5.16306 -18.9446 -1.82141 8.49858 -17.9556 9.3708 -23.4692 1.89145 112.053 4.12949 47.3084 14.0219 -16.6969 3.55812 2.54649 3.67988 -30.382 -1.89796 
